<?xml version="1.0" standalone="no"?>
<!DOCTYPE svg PUBLIC "-//W3C//DTD SVG 20010904//EN"
 "http://www.w3.org/TR/2001/REC-SVG-20010904/DTD/svg10.dtd">
<svg version="1.0" xmlns="http://www.w3.org/2000/svg"
 width="1166.000000pt" height="1280.000000pt" viewBox="0 0 1166.000000 1280.000000"
 preserveAspectRatio="xMidYMid meet">
<metadata>
Created by potrace 1.15, written by Peter Selinger 2001-2017
</metadata>
<g transform="translate(0.000000,1280.000000) scale(0.100000,-0.100000)"
fill="#000000" stroke="none">
<path d="M3385 12743 c9 -43 26 -106 36 -128 4 -11 10 -36 13 -55 6 -49 25
-131 36 -155 15 -34 18 -78 9 -104 -5 -13 -12 -63 -16 -110 -3 -47 -9 -92 -13
-100 -4 -8 1 -52 11 -98 13 -59 16 -91 9 -103 -7 -12 -7 -28 0 -45 16 -41 12
-136 -5 -155 -10 -11 -17 -47 -20 -109 -3 -56 -12 -105 -21 -123 -12 -23 -15
-47 -10 -92 15 -161 17 -228 5 -242 -8 -10 -9 -39 -4 -100 6 -80 5 -87 -15
-109 -24 -26 -24 -16 -6 -185 20 -185 20 -187 -2 -201 -14 -9 -18 -18 -13 -28
4 -9 16 -44 25 -79 14 -49 15 -66 6 -78 -17 -20 -5 -73 40 -170 21 -45 41 -96
45 -113 4 -17 11 -33 16 -37 17 -10 37 -71 32 -98 -4 -18 1 -34 14 -49 29 -33
123 -230 123 -258 0 -39 53 -138 114 -214 31 -38 54 -76 51 -83 -2 -7 2 -15 9
-18 27 -10 109 -128 109 -156 0 -17 6 -28 14 -28 17 0 183 -160 183 -176 0 -7
48 -56 108 -110 59 -54 220 -213 357 -353 138 -139 292 -289 344 -333 52 -44
121 -110 154 -146 33 -37 64 -69 68 -72 29 -21 268 -359 296 -420 20 -41 55
-115 79 -164 24 -48 44 -94 44 -101 0 -8 16 -49 36 -92 55 -119 92 -208 129
-313 19 -52 45 -126 59 -163 15 -37 26 -81 26 -97 0 -26 -4 -30 -27 -30 -36 1
-62 15 -129 75 -71 62 -103 107 -239 324 -59 96 -127 202 -151 235 -54 77
-193 229 -253 277 -82 64 -278 247 -338 314 -32 37 -71 73 -88 80 -16 8 -39
20 -50 27 -113 73 -166 111 -177 125 -7 10 -20 23 -29 28 -9 6 -61 40 -115 78
-71 48 -108 67 -130 67 -28 0 -131 49 -166 80 -7 6 -28 22 -47 35 -31 23 -36
23 -52 9 -15 -13 -22 -12 -70 17 -71 42 -164 83 -219 98 -25 7 -61 22 -80 33
-19 12 -56 22 -81 24 -26 1 -57 8 -70 15 -13 7 -26 14 -29 15 -6 1 -75 31
-117 51 -17 8 -47 13 -65 12 -29 -2 -77 8 -128 28 -8 4 -17 7 -20 8 -3 1 -17
7 -31 13 -15 6 -46 16 -70 22 -24 7 -69 20 -100 30 -30 11 -64 17 -75 14 -10
-3 -73 2 -139 10 -112 14 -120 14 -131 -3 -19 -26 -86 -46 -112 -32 -11 6 -48
17 -81 25 -50 12 -62 12 -71 1 -6 -7 -39 -16 -73 -18 -82 -7 -129 -17 -147
-32 -17 -13 -49 -28 -65 -30 -5 0 -17 -5 -25 -10 -8 -5 -92 -10 -186 -10 -150
0 -173 -2 -188 -18 -12 -11 -22 -14 -30 -8 -18 15 -224 25 -240 12 -15 -12
-257 -17 -317 -6 -26 5 -48 1 -84 -15 -44 -20 -59 -22 -134 -16 -47 4 -94 13
-105 19 -14 8 -78 12 -186 13 -177 0 -177 0 -288 46 -41 16 -76 27 -79 25 -9
-9 17 -45 48 -67 31 -23 87 -51 227 -115 45 -21 87 -44 93 -51 6 -7 32 -20 57
-28 30 -10 86 -48 156 -107 60 -50 141 -107 179 -127 97 -51 105 -56 135 -85
15 -13 38 -28 52 -32 82 -25 283 -196 265 -226 -10 -15 32 -57 85 -84 53 -28
115 -89 105 -104 -6 -10 138 -85 200 -105 29 -9 75 -51 75 -69 0 -10 18 -22
49 -32 27 -9 55 -23 61 -31 7 -7 18 -14 24 -14 18 0 96 -69 96 -85 0 -7 24
-27 52 -44 55 -31 110 -81 107 -97 -4 -24 4 -35 44 -55 23 -12 50 -30 60 -40
9 -10 36 -23 60 -29 133 -35 184 -55 212 -84 17 -16 57 -39 90 -51 97 -34 141
-58 166 -92 13 -18 39 -36 59 -42 85 -24 157 -54 177 -73 22 -20 67 -34 218
-68 44 -10 103 -25 130 -33 28 -9 88 -26 135 -38 62 -16 92 -30 111 -50 30
-33 74 -45 191 -54 56 -4 91 -12 99 -21 8 -10 34 -14 93 -13 111 1 217 -16
261 -42 37 -22 40 -22 393 -16 394 7 453 14 652 72 69 20 143 41 165 46 22 5
45 11 50 13 80 25 93 25 146 11 30 -9 97 -23 149 -32 144 -24 170 -35 215 -95
21 -29 67 -110 101 -179 35 -70 78 -151 97 -181 52 -82 264 -476 423 -788 29
-58 69 -132 87 -165 85 -152 247 -453 247 -460 0 -4 8 -19 19 -33 29 -42 141
-261 141 -276 0 -8 16 -38 36 -67 20 -30 45 -72 56 -94 12 -22 29 -51 39 -64
11 -13 19 -27 19 -31 0 -16 -101 -19 -157 -4 -71 18 -109 57 -158 161 -19 40
-39 73 -44 73 -6 0 -11 5 -11 11 0 32 -205 292 -303 384 -122 115 -153 138
-372 268 -11 7 -34 22 -51 34 -51 36 -207 107 -234 107 -14 0 -52 14 -86 31
-88 47 -131 60 -149 45 -16 -14 -59 -2 -136 36 -26 13 -58 24 -72 24 -13 0
-62 20 -108 44 -91 47 -179 73 -207 60 -22 -9 -49 -6 -87 11 -80 35 -137 48
-160 35 -20 -11 -33 -8 -97 23 -40 19 -82 38 -93 42 -25 9 -93 10 -102 2 -8
-9 -48 -9 -55 -1 -4 3 -91 6 -194 5 -103 0 -195 4 -205 9 -12 7 -21 5 -29 -6
-11 -12 -31 -14 -112 -10 -129 7 -245 -8 -273 -34 -14 -13 -35 -20 -62 -20
-47 0 -193 -28 -208 -40 -9 -7 -46 -13 -170 -25 -122 -12 -162 -19 -184 -34
-23 -15 -71 -24 -263 -50 -94 -13 -137 -27 -163 -51 -18 -17 -40 -22 -101 -26
-44 -3 -89 -10 -101 -16 -12 -6 -28 -8 -36 -5 -7 3 -19 -3 -25 -13 -13 -22
-58 -43 -127 -60 -27 -7 -54 -16 -60 -19 -5 -3 -18 -4 -28 -3 -10 2 -24 -1
-30 -6 -7 -5 -38 -12 -71 -15 -43 -4 -65 -12 -85 -30 -14 -14 -45 -31 -68 -38
-23 -6 -52 -23 -64 -35 -13 -13 -29 -24 -36 -24 -7 0 -21 -4 -31 -10 -9 -5
-48 -19 -87 -30 -129 -36 -178 -56 -186 -76 -14 -38 -53 -61 -139 -78 -47 -10
-96 -22 -110 -26 -14 -5 -72 -11 -130 -14 -58 -4 -125 -8 -150 -11 -25 -2 -80
-7 -122 -10 -43 -4 -80 -10 -83 -15 -2 -4 -36 -10 -75 -14 -38 -4 -70 -11 -70
-15 0 -14 78 -45 165 -66 35 -8 90 -24 122 -35 32 -12 103 -25 160 -30 63 -5
114 -15 135 -26 18 -10 38 -18 43 -19 6 -1 17 -4 25 -7 8 -4 33 -9 55 -11 86
-11 195 -36 241 -57 27 -12 76 -30 109 -41 33 -12 125 -52 205 -91 80 -39 154
-74 165 -80 36 -16 68 -36 74 -46 8 -12 122 -72 138 -72 6 0 22 -13 36 -29 23
-28 62 -41 162 -55 34 -5 69 -18 85 -31 13 -11 79 -28 199 -51 29 -6 70 -35
71 -50 0 -6 26 -18 58 -27 55 -15 78 -20 169 -33 24 -4 48 -13 54 -20 6 -8 43
-23 83 -35 39 -12 79 -28 88 -36 9 -8 51 -25 93 -38 42 -13 83 -29 91 -36 9
-7 37 -13 65 -14 29 -1 56 -8 67 -18 10 -10 35 -17 55 -17 57 0 252 -50 291
-75 32 -20 108 -28 242 -26 104 1 124 -1 145 -17 20 -16 50 -20 179 -26 119
-6 159 -11 172 -23 15 -14 35 -14 145 -7 109 8 130 7 143 -6 16 -16 44 -14
143 10 36 9 52 9 60 1 6 -6 20 -11 31 -11 31 0 206 49 253 71 22 11 61 22 85
25 114 15 159 16 172 5 11 -9 28 -6 77 14 35 15 70 28 78 30 9 2 126 42 261
88 255 88 320 114 533 216 70 34 148 66 173 71 25 6 143 12 260 13 l215 2 72
-75 c107 -110 191 -209 297 -350 52 -69 113 -147 136 -175 23 -27 117 -151
209 -275 93 -124 191 -254 218 -290 27 -36 102 -135 165 -220 63 -85 134 -175
157 -200 23 -25 68 -86 99 -136 65 -104 84 -125 196 -214 45 -36 116 -94 158
-130 42 -36 140 -112 216 -169 77 -57 162 -125 190 -152 52 -48 129 -109 311
-245 254 -191 424 -314 460 -335 22 -13 120 -80 217 -149 98 -69 239 -163 314
-210 191 -119 218 -136 312 -197 46 -30 98 -61 115 -68 18 -8 62 -35 99 -62
103 -73 181 -121 208 -128 19 -4 37 2 68 25 49 35 62 62 62 130 0 64 -15 72
-140 77 -52 3 -109 11 -127 19 -17 8 -34 14 -37 14 -15 0 -168 77 -278 140
-67 39 -123 70 -125 70 -2 0 -32 19 -66 43 -34 23 -78 51 -97 61 -35 19 -383
252 -430 288 -14 11 -72 55 -130 98 -153 115 -225 169 -289 220 -31 25 -106
83 -166 130 -60 47 -125 99 -144 116 -20 17 -97 80 -171 139 -252 203 -375
309 -468 405 -51 52 -128 131 -172 175 -43 44 -110 121 -150 170 -39 50 -79
99 -88 110 -14 17 -111 143 -186 244 -11 14 -31 40 -45 57 -15 17 -59 74 -99
125 -222 288 -286 370 -408 529 -133 174 -166 215 -214 274 -14 17 -47 60 -74
95 -27 35 -60 75 -72 88 -25 27 -40 95 -29 140 7 30 77 157 136 244 40 59 141
153 259 241 100 75 198 186 301 338 46 69 87 132 92 140 4 8 23 35 42 60 19
25 44 65 55 89 21 44 73 117 99 137 7 6 15 22 16 36 3 26 26 68 56 103 9 11
28 40 41 66 13 25 38 65 55 90 54 78 146 278 149 323 3 49 28 142 44 161 6 7
10 28 9 46 -2 32 21 96 78 217 14 31 26 76 28 111 2 32 14 85 26 117 12 33 23
70 24 84 4 47 18 105 27 116 5 7 8 16 6 20 -1 5 4 26 11 47 9 27 10 41 2 51
-11 13 -1 65 32 166 8 25 15 69 16 98 0 29 3 58 7 63 9 16 22 213 14 224 -8
11 -23 103 -23 150 -1 17 3 93 8 170 5 77 8 156 7 175 -4 92 -14 167 -23 185
-10 20 -8 62 7 212 5 55 3 78 -8 95 -9 15 -15 57 -16 118 -2 52 -7 99 -12 104
-6 6 -10 26 -10 46 0 20 -3 40 -6 43 -4 4 -6 48 -6 99 1 71 -2 96 -14 109 -11
12 -19 53 -26 131 -5 62 -14 120 -18 129 -8 16 -14 46 -25 121 -2 20 -11 56
-19 80 -9 24 -18 70 -22 103 -3 33 -14 71 -24 85 -10 14 -22 61 -28 104 -6 47
-17 85 -28 97 -14 16 -17 41 -19 143 -1 72 -6 130 -12 138 -6 7 -13 40 -16 73
-6 73 -15 123 -27 150 -5 11 -19 45 -31 75 -12 30 -29 63 -38 73 -14 17 -16
17 -24 -5 -5 -13 -10 -104 -12 -203 -2 -120 -9 -207 -20 -260 -19 -89 -33
-165 -34 -180 -1 -6 -17 -35 -36 -65 -20 -31 -35 -67 -35 -84 0 -16 -6 -37
-13 -45 -7 -9 -21 -41 -31 -71 -10 -30 -31 -76 -47 -101 -16 -25 -39 -74 -52
-110 -13 -35 -31 -77 -40 -94 -9 -16 -26 -50 -38 -75 -12 -25 -34 -58 -49 -75
-15 -16 -37 -59 -50 -94 -12 -36 -38 -87 -57 -114 -19 -27 -40 -64 -46 -81 -5
-17 -21 -44 -34 -61 -47 -61 -63 -89 -63 -115 0 -23 -15 -52 -47 -93 -13 -16
-23 -39 -23 -53 0 -13 -5 -24 -11 -24 -6 0 -9 -12 -8 -27 5 -50 -17 -102 -73
-180 -21 -28 -47 -71 -59 -95 -11 -24 -24 -50 -29 -58 -4 -9 -11 -30 -14 -47
-4 -17 -14 -37 -22 -44 -8 -6 -14 -15 -14 -20 0 -4 -14 -30 -31 -57 -22 -36
-32 -66 -35 -108 -3 -37 -16 -83 -35 -124 -43 -92 -60 -137 -74 -209 -7 -32
-50 -105 -86 -146 -10 -11 -18 -23 -18 -28 1 -24 -14 -88 -22 -93 -5 -3 -9
-26 -9 -52 0 -46 -22 -134 -38 -156 -5 -6 -14 -36 -21 -66 -6 -31 -20 -70 -31
-88 -11 -18 -20 -48 -20 -67 0 -18 -5 -37 -10 -40 -6 -4 -8 -10 -5 -15 3 -5 1
-27 -5 -49 -6 -22 -11 -56 -12 -76 -1 -20 -5 -38 -10 -41 -4 -3 -8 -14 -8 -25
0 -11 -6 -30 -14 -42 -8 -12 -17 -41 -21 -64 -4 -24 -11 -45 -16 -49 -5 -3 -7
-9 -4 -14 3 -5 -6 -25 -20 -46 -14 -20 -25 -49 -25 -64 0 -15 -7 -41 -15 -56
-9 -17 -15 -56 -15 -93 0 -59 -8 -101 -31 -156 -11 -26 -13 -168 -5 -330 3
-71 8 -179 10 -240 2 -60 12 -139 21 -175 9 -36 21 -85 25 -110 21 -117 68
-263 105 -326 16 -29 47 -83 68 -121 20 -37 41 -75 46 -83 22 -38 80 -168 87
-195 4 -16 12 -36 18 -44 16 -21 11 -159 -8 -203 -30 -70 -40 -64 -121 73 -25
42 -54 84 -65 94 -11 10 -20 23 -20 29 0 6 -15 34 -33 61 -19 28 -41 65 -50
82 -40 79 -49 93 -57 98 -4 3 -22 32 -39 65 -18 33 -40 75 -51 93 -11 17 -31
52 -45 77 -14 25 -41 72 -60 105 -20 33 -45 80 -57 105 -12 25 -27 52 -33 60
-12 14 -36 61 -190 355 -37 72 -72 135 -77 142 -5 6 -55 98 -112 205 -57 106
-121 224 -142 262 -89 158 -116 207 -179 333 -66 130 -67 133 -51 158 22 34
104 94 139 101 16 4 57 37 100 81 40 41 95 90 122 109 28 18 68 50 90 69 22
19 45 35 51 35 5 0 19 8 30 18 10 10 47 41 81 69 79 66 342 335 384 393 18 25
46 61 63 82 47 55 96 124 96 135 0 5 12 20 26 34 14 13 71 80 127 149 55 69
118 144 139 167 21 24 38 52 38 64 0 25 24 61 100 149 61 70 120 163 120 186
0 8 16 45 35 82 19 37 39 78 45 92 5 14 14 32 19 40 5 8 13 26 19 40 6 14 24
56 41 93 19 42 29 78 25 91 -3 13 6 47 21 82 15 32 33 85 41 118 8 32 24 72
35 88 15 20 20 39 16 61 -3 20 6 64 24 119 16 48 29 98 29 111 0 14 7 44 16
68 8 24 17 51 19 59 2 8 13 51 24 94 25 94 26 119 7 135 -10 9 -12 20 -6 40 4
16 11 72 15 126 5 65 16 119 33 164 14 36 26 91 27 122 1 30 17 100 34 154 18
54 30 107 28 117 -3 10 5 53 19 96 15 49 23 101 23 142 0 36 3 76 7 90 4 14 8
61 10 105 2 44 7 89 12 100 25 54 38 166 22 195 -7 13 -5 39 5 86 9 36 15 90
14 118 -1 28 1 119 4 201 9 228 -5 450 -30 500 l-21 40 -5 -130 c-5 -149 -7
-157 -30 -183 -10 -11 -26 -42 -36 -70 -21 -56 -83 -163 -106 -182 -8 -7 -15
-18 -15 -25 0 -7 -24 -34 -52 -61 -29 -27 -104 -103 -167 -169 -62 -66 -122
-123 -133 -127 -11 -5 -46 -28 -78 -53 -32 -25 -65 -45 -73 -45 -7 0 -49 -38
-92 -85 -43 -47 -84 -84 -91 -81 -20 8 -54 -24 -95 -88 -22 -33 -56 -72 -77
-86 -20 -14 -42 -36 -48 -48 -6 -12 -17 -30 -25 -39 -8 -10 -24 -35 -34 -56
-24 -45 -82 -104 -110 -109 -11 -2 -46 -41 -81 -91 -34 -48 -73 -98 -85 -111
-13 -12 -41 -44 -62 -69 -21 -26 -43 -45 -48 -42 -10 7 -39 -18 -39 -33 0 -5
-7 -15 -15 -22 -8 -6 -30 -40 -50 -73 -20 -34 -48 -78 -63 -98 -15 -20 -53
-73 -86 -118 -32 -45 -68 -86 -80 -91 -13 -4 -34 -35 -53 -76 -54 -116 -103
-231 -103 -242 0 -5 -6 -15 -14 -22 -8 -6 -12 -18 -9 -25 7 -21 -16 -86 -42
-115 -41 -47 -73 -131 -80 -215 -4 -44 -14 -96 -22 -115 -9 -19 -17 -73 -19
-119 -2 -46 -8 -89 -14 -95 -5 -5 -10 -19 -10 -31 0 -11 -7 -33 -15 -49 -8
-15 -15 -36 -15 -45 0 -10 -3 -21 -7 -24 -3 -4 -7 -17 -8 -30 -3 -32 -34 -167
-42 -180 -3 -5 -12 -37 -19 -71 -7 -34 -20 -90 -29 -126 -18 -71 -26 -119 -26
-165 0 -16 -5 -55 -10 -85 -12 -64 -14 -84 -24 -250 -8 -123 11 -380 34 -470
5 -19 17 -71 27 -115 9 -44 28 -120 41 -169 26 -96 29 -189 7 -241 -26 -64
-45 -55 -94 49 -22 44 -44 88 -49 96 -11 18 -71 147 -81 175 -4 11 -13 33 -19
48 -6 15 -11 36 -11 46 0 10 -7 24 -15 31 -8 7 -15 21 -15 32 0 11 -6 32 -14
46 -21 41 -36 95 -36 130 0 17 -4 34 -10 37 -5 3 -10 14 -10 23 0 9 -6 29 -14
44 -15 28 -25 65 -31 117 -2 17 -11 72 -20 123 -8 51 -17 117 -20 147 -5 65
-24 160 -36 184 -12 21 -26 226 -34 487 -3 107 -9 229 -12 270 -3 41 -6 89 -7
105 -1 17 -4 35 -7 40 -11 19 -3 299 10 341 8 24 11 63 8 95 -23 217 -26 314
-13 374 5 22 9 54 10 72 0 40 -25 142 -36 149 -4 3 -8 15 -8 27 0 21 -25 100
-37 120 -3 5 -7 32 -9 59 -3 27 -9 59 -15 70 -6 11 -26 70 -46 131 -19 62 -43
121 -53 132 -10 12 -20 45 -24 80 -11 98 -34 165 -61 175 -31 12 -54 48 -67
102 -15 65 -16 70 -27 106 -5 18 -24 49 -40 68 -17 19 -31 42 -31 50 0 25 -29
74 -44 74 -8 0 -33 23 -56 50 -23 28 -49 50 -59 50 -9 0 -22 8 -29 18 -6 9
-30 45 -53 80 -26 40 -47 62 -60 62 -11 0 -32 19 -51 47 -55 78 -154 173 -181
173 -28 0 -67 41 -134 143 -50 75 -76 95 -99 76 -27 -22 -115 66 -138 139 -4
12 -13 22 -19 22 -7 1 -29 26 -50 56 -21 30 -49 59 -63 64 -13 5 -38 32 -55
60 -17 27 -37 50 -44 50 -8 0 -29 18 -47 41 -18 23 -51 63 -73 90 -74 90 -90
113 -115 166 -27 58 -61 101 -161 205 -71 73 -103 88 -94 41z"/>
</g>
</svg>
