<?xml version="1.0" standalone="no"?>
<!DOCTYPE svg PUBLIC "-//W3C//DTD SVG 20010904//EN"
 "http://www.w3.org/TR/2001/REC-SVG-20010904/DTD/svg10.dtd">
<svg version="1.0" xmlns="http://www.w3.org/2000/svg"
 width="1280.000000pt" height="640.000000pt" viewBox="0 0 1280.000000 640.000000"
 preserveAspectRatio="xMidYMid meet">
<g transform="translate(0.000000,640.000000) scale(0.100000,-0.100000)"
fill="#000000" stroke="none">
<path d="M6275 5974 c-16 -2 -66 -9 -110 -15 -565 -75 -1073 -474 -1289 -1013
-143 -355 -155 -753 -35 -1126 151 -468 546 -870 1016 -1033 782 -273 1649 80
2012 818 119 243 171 466 171 733 -1 430 -156 818 -454 1129 -251 263 -564
428 -926 489 -86 15 -330 26 -385 18z"/>
<path d="M2285 4769 c-254 -30 -504 -140 -694 -304 -451 -391 -576 -1031 -305
-1561 62 -123 143 -230 248 -332 110 -106 192 -166 311 -225 375 -189 803
-188 1176 4 427 219 692 655 692 1139 0 344 -121 645 -359 890 -196 202 -432
330 -692 375 -111 20 -279 26 -377 14z"/>
<path d="M10225 4769 c-182 -20 -378 -89 -542 -190 -118 -73 -311 -263 -388
-381 -198 -308 -259 -672 -171 -1021 62 -242 180 -444 362 -618 95 -90 175
-148 292 -208 425 -218 915 -189 1316 77 94 62 249 213 319 309 181 252 268
572 237 870 -28 278 -131 521 -305 722 -218 251 -512 404 -843 440 -115 12
-161 12 -277 0z"/>
<path d="M5606 2554 c-540 -73 -1066 -358 -1517 -821 -263 -270 -470 -571
-620 -903 -58 -130 -131 -321 -144 -378 l-7 -32 3082 0 3082 0 -7 33 c-11 49
-87 250 -139 366 -215 482 -584 939 -1016 1258 -357 263 -745 427 -1135 478
-158 21 -1426 20 -1579 -1z"/>
<path d="M1755 2084 c-184 -33 -340 -86 -521 -177 -534 -268 -985 -792 -1185
-1376 -16 -47 -29 -91 -29 -98 0 -11 273 -13 1546 -11 l1546 3 47 145 c135
407 361 814 628 1128 74 87 78 74 -42 145 -195 115 -430 203 -632 237 -106 18
-161 20 -696 19 -458 -1 -599 -4 -662 -15z"/>
<path d="M9679 2080 c-204 -37 -471 -141 -657 -257 -65 -40 -72 -47 -60 -63 7
-9 53 -66 101 -126 253 -314 449 -674 578 -1064 l47 -145 1546 -3 c1273 -2
1546 0 1546 11 0 7 -13 51 -29 98 -206 601 -670 1129 -1224 1394 -149 71 -245
106 -397 143 l-105 26 -620 2 c-571 3 -628 1 -726 -16z"/>
</g>
</svg>
